<?xml version="1.0" standalone="no"?>
<!DOCTYPE svg PUBLIC "-//W3C//DTD SVG 20010904//EN"
 "http://www.w3.org/TR/2001/REC-SVG-20010904/DTD/svg10.dtd">
<svg version="1.0" xmlns="http://www.w3.org/2000/svg"
 width="234.000000pt" height="234.000000pt" viewBox="0 0 234.000000 234.000000"
 preserveAspectRatio="xMidYMid meet">
<metadata>
Created by potrace 1.14, written by Peter Selinger 2001-2017
</metadata>
<g transform="translate(0.000000,234.000000) scale(0.100000,-0.100000)"
fill="#000000" stroke="none">
<path d="M1153 2068 c0 -7 -7 -49 -16 -93 -9 -44 -26 -135 -39 -202 l-22 -122
-35 -3 -35 -3 -27 -110 c-45 -176 -48 -186 -66 -183 -12 2 -25 -32 -59 -160
-24 -90 -46 -167 -49 -172 -3 -5 -12 -7 -20 -4 -16 7 -35 -25 -35 -59 0 -21
-4 -24 -21 -20 -24 7 -29 18 -59 143 -25 99 -31 111 -61 105 -19 -4 -24 5 -35
70 -8 50 -10 60 -30 165 -9 47 -17 91 -17 98 0 19 -27 14 -28 -5 -1 -22 -4
-43 -29 -168 -11 -55 -21 -110 -23 -122 -2 -12 -7 -26 -11 -30 -8 -8 -12 -9
-40 -12 -11 -1 -27 -44 -41 -111 -18 -87 -31 -124 -46 -127 -12 -3 -24 -35
-44 -109 -46 -177 -44 -174 -65 -174 -15 0 -22 -15 -36 -77 -13 -55 -23 -77
-36 -81 -11 -2 -22 -20 -28 -46 -25 -95 -31 -106 -55 -106 -18 0 -25 -8 -33
-42 -6 -23 -10 -43 -9 -44 2 -2 105 18 208 41 9 2 32 6 50 9 19 3 45 8 59 11
13 2 42 7 65 10 22 4 54 8 70 11 57 8 100 14 160 19 33 3 69 8 80 10 115 23
729 24 930 1 17 -2 57 -7 90 -10 93 -10 143 -17 235 -32 47 -8 101 -17 120
-20 19 -3 76 -14 125 -25 135 -30 135 -30 135 -23 0 4 -5 24 -12 45 -9 31 -16
39 -34 39 -24 0 -32 18 -50 109 -4 21 -14 36 -25 38 -12 3 -23 21 -30 47 -26
102 -32 116 -49 116 -11 0 -20 11 -24 28 -33 136 -70 252 -81 252 -7 0 -15 8
-18 18 -2 9 -17 62 -31 117 -28 102 -36 116 -66 110 -14 -3 -19 6 -25 38 -4
23 -9 47 -10 52 -2 6 -6 26 -9 45 -4 19 -11 60 -17 90 -6 30 -13 69 -16 85 -5
30 -22 59 -24 40 0 -6 -15 -86 -32 -180 -30 -158 -34 -170 -55 -170 -12 0 -26
-5 -30 -10 -5 -6 -22 -60 -38 -122 -21 -82 -33 -113 -45 -116 -13 -4 -21 5
-31 36 -8 26 -20 41 -31 43 -11 1 -20 4 -22 6 -3 4 -70 252 -80 296 -3 17 -13
32 -20 32 -21 0 -27 14 -65 160 -35 133 -35 135 -65 138 -39 5 -42 9 -50 62
-4 24 -8 47 -10 50 -2 3 -6 26 -10 50 -3 25 -8 52 -10 60 -2 8 -7 29 -10 45
-2 17 -7 40 -9 52 -3 11 -8 42 -11 67 -4 26 -13 46 -19 46 -7 0 -13 -6 -13
-12z"/>
</g>
</svg>
