<?xml version="1.0" encoding="UTF-8" standalone="no"?>
<svg xmlns:svg="http://www.w3.org/2000/svg" xmlns="http://www.w3.org/2000/svg" xmlns:xlink="http://www.w3.org/1999/xlink" version="1.0" width="247px" height="10px" viewBox="0 0 60 10" xml:space="preserve">
  <rect x="0" y="0" width="100%" height="100%" fill="#FFFFFF" />
  <g>
    <path fill="#d42d2d" d="M167.252,7.5c-0.441-3.356-3.934-6-7.252-6s-6.762,2.644-7.252,6h-0.022c-0.445,4.185-4.6,7.5-8.726,7.5a9.041,9.041,0,0,1-8.726-7.5h-0.022c-0.441-3.356-3.934-6-7.252-6s-6.762,2.644-7.252,6h-0.022c-0.445,4.185-4.6,7.5-8.726,7.5a9.041,9.041,0,0,1-8.726-7.5h-0.022c-0.441-3.356-3.934-6-7.252-6s-6.762,2.644-7.252,6H88.726C88.281,11.685,84.129,15,80,15a9.04,9.04,0,0,1-8.726-7.5H71.252c-0.442-3.356-3.935-6-7.252-6s-6.762,2.644-7.252,6H56.726C56.281,11.685,52.129,15,48,15a9.04,9.04,0,0,1-8.726-7.5H39.252c-0.442-3.356-3.935-6-7.252-6s-6.762,2.644-7.252,6H24.726C24.281,11.685,20.129,15,16,15A9.04,9.04,0,0,1,7.274,7.5H7.252C6.811,4.144,3.318,1.5,0,1.5s-6.762,2.644-7.252,6H-8.711A9.029,9.029,0,0,1,0,0C4.121,0,8.266,3.315,8.711,7.5H8.735c0.491,3.356,3.941,6,7.265,6s6.822-2.644,7.265-6h0.024A9.03,9.03,0,0,1,32,0c4.121,0,8.266,3.315,8.711,7.5h0.024c0.491,3.356,3.941,6,7.265,6s6.822-2.644,7.265-6h0.024A9.03,9.03,0,0,1,64,0c4.121,0,8.266,3.315,8.711,7.5h0.024c0.491,3.356,3.941,6,7.265,6s6.822-2.644,7.265-6h0.024A9.03,9.03,0,0,1,96,0c4.121,0,8.266,3.315,8.711,7.5h0.024c0.491,3.356,3.941,6,7.265,6s6.822-2.644,7.265-6h0.024A9.031,9.031,0,0,1,128,0c4.121,0,8.266,3.315,8.711,7.5h0.024c0.491,3.356,3.941,6,7.265,6s6.822-2.644,7.265-6h0.024A9.031,9.031,0,0,1,160,0c4.121,0,8.266,3.315,8.711,7.5h-1.459Z" />
    <animateTransform attributeName="transform" type="translate" from="0 0" to="-32 0" dur="900ms" repeatCount="indefinite" />
  </g>
</svg>